<svg xmlns="http://www.w3.org/2000/svg" xmlns:xlink="http://www.w3.org/1999/xlink" width="389.689453125" height="21.09375"><path fill="#d83b7d" d="M8.44 16.70L5.15 11.57L3.78 13.04L3.78 16.70L1.14 16.70L1.14 3.90L3.78 3.90L3.78 9.70L4.94 8.11L8.20 3.90L11.44 3.90L6.90 9.59L11.58 16.70L8.44 16.70ZM20.48 16.70L17.91 16.70Q17.74 16.36 17.66 15.85L17.66 15.85Q16.73 16.88 15.26 16.88L15.26 16.88Q13.86 16.88 12.94 16.07Q12.02 15.26 12.02 14.03L12.02 14.03Q12.02 12.52 13.14 11.71Q14.26 10.90 16.38 10.89L16.38 10.89L17.55 10.89L17.55 10.34Q17.55 9.69 17.21 9.29Q16.88 8.89 16.15 8.89L16.15 8.89Q15.50 8.89 15.14 9.20Q14.77 9.51 14.77 10.05L14.77 10.05L12.23 10.05Q12.23 9.22 12.74 8.52Q13.25 7.81 14.19 7.41Q15.12 7.01 16.28 7.01L16.28 7.01Q18.04 7.01 19.07 7.90Q20.10 8.78 20.10 10.38L20.10 10.38L20.10 14.50Q20.11 15.86 20.48 16.55L20.48 16.55L20.48 16.70ZM15.81 14.93L15.81 14.93Q16.37 14.93 16.85 14.68Q17.32 14.43 17.55 14.01L17.55 14.01L17.55 12.38L16.60 12.38Q14.70 12.38 14.57 13.69L14.57 13.69L14.56 13.84Q14.56 14.32 14.90 14.63Q15.23 14.93 15.81 14.93ZM24.73 3.20L24.73 16.70L22.18 16.70L22.18 3.20L24.73 3.20ZM29.50 7.19L29.50 16.70L26.96 16.70L26.96 7.19L29.50 7.19ZM26.81 4.73L26.81 4.73Q26.81 4.16 27.19 3.79Q27.57 3.42 28.23 3.42L28.23 3.42Q28.88 3.42 29.27 3.79Q29.65 4.16 29.65 4.73L29.65 4.73Q29.65 5.31 29.26 5.68Q28.87 6.05 28.23 6.05Q27.59 6.05 27.20 5.68Q26.81 5.31 26.81 4.73ZM43.29 3.90L45.93 3.90L45.93 12.33Q45.93 14.43 44.62 15.65Q43.30 16.88 41.03 16.88L41.03 16.88Q38.79 16.88 37.47 15.69Q36.15 14.50 36.12 12.43L36.12 12.43L36.12 3.90L38.76 3.90L38.76 12.35Q38.76 13.61 39.36 14.18Q39.96 14.76 41.03 14.76L41.03 14.76Q43.25 14.76 43.29 12.42L43.29 12.42L43.29 3.90ZM51.88 14.83L51.88 14.83Q52.58 14.83 53.02 14.44Q53.46 14.05 53.48 13.41L53.48 13.41L55.86 13.41Q55.85 14.38 55.34 15.18Q54.82 15.99 53.92 16.43Q53.02 16.88 51.93 16.88L51.93 16.88Q49.89 16.88 48.71 15.58Q47.53 14.28 47.53 12.00L47.53 12.00L47.53 11.83Q47.53 9.63 48.70 8.32Q49.87 7.01 51.91 7.01L51.91 7.01Q53.69 7.01 54.77 8.03Q55.85 9.04 55.86 10.73L55.86 10.73L53.48 10.73Q53.46 9.99 53.02 9.53Q52.58 9.07 51.86 9.07L51.86 9.07Q50.98 9.07 50.52 9.72Q50.07 10.36 50.07 11.81L50.07 11.81L50.07 12.08Q50.07 13.54 50.52 14.19Q50.97 14.83 51.88 14.83ZM59.79 3.20L59.79 8.23Q60.80 7.01 62.33 7.01L62.33 7.01Q65.43 7.01 65.47 10.61L65.47 10.61L65.47 16.70L62.93 16.70L62.93 10.68Q62.93 9.86 62.58 9.47Q62.23 9.08 61.41 9.08L61.41 9.08Q60.29 9.08 59.79 9.94L59.79 9.94L59.79 16.70L57.25 16.70L57.25 3.20L59.79 3.20ZM70.07 7.19L70.07 16.70L67.52 16.70L67.52 7.19L70.07 7.19ZM67.37 4.73L67.37 4.73Q67.37 4.16 67.75 3.79Q68.13 3.42 68.79 3.42L68.79 3.42Q69.44 3.42 69.83 3.79Q70.22 4.16 70.22 4.73L70.22 4.73Q70.22 5.31 69.82 5.68Q69.43 6.05 68.79 6.05Q68.15 6.05 67.76 5.68Q67.37 5.31 67.37 4.73ZM77.31 14.07L77.31 14.07Q77.31 13.61 76.85 13.34Q76.39 13.07 75.37 12.86L75.37 12.86Q71.97 12.15 71.97 9.98L71.97 9.98Q71.97 8.71 73.02 7.86Q74.07 7.01 75.77 7.01L75.77 7.01Q77.58 7.01 78.67 7.87Q79.75 8.72 79.75 10.08L79.75 10.08L77.21 10.08Q77.21 9.54 76.86 9.18Q76.51 8.82 75.76 8.82L75.76 8.82Q75.12 8.82 74.77 9.11Q74.42 9.40 74.42 9.85L74.42 9.85Q74.42 10.27 74.82 10.53Q75.22 10.79 76.17 10.98Q77.12 11.17 77.77 11.41L77.77 11.41Q79.78 12.15 79.78 13.97L79.78 13.97Q79.78 15.27 78.66 16.07Q77.55 16.88 75.78 16.88L75.78 16.88Q74.58 16.88 73.66 16.45Q72.73 16.02 72.20 15.28Q71.67 14.54 71.67 13.68L71.67 13.68L74.08 13.68Q74.12 14.35 74.58 14.71Q75.05 15.07 75.83 15.07L75.83 15.07Q76.56 15.07 76.94 14.80Q77.31 14.52 77.31 14.07ZM82.07 19.91L82.07 19.91L80.75 19.21L81.06 18.64Q81.65 17.57 81.67 16.51L81.67 16.51L81.67 14.54L83.81 14.54L83.80 16.29Q83.79 17.27 83.31 18.26Q82.83 19.26 82.07 19.91ZM99.56 3.90L99.56 6.04L95.64 6.04L95.64 16.70L93.01 16.70L93.01 6.04L89.14 6.04L89.14 3.90L99.56 3.90ZM101.96 7.19L103.73 13.10L105.49 7.19L108.21 7.19L104.39 18.18L104.18 18.68Q103.32 20.54 101.36 20.54L101.36 20.54Q100.81 20.54 100.24 20.37L100.24 20.37L100.24 18.45L100.63 18.46Q101.35 18.46 101.70 18.24Q102.06 18.02 102.26 17.51L102.26 17.51L102.56 16.73L99.23 7.19L101.96 7.19ZM111.89 3.20L111.89 16.70L109.34 16.70L109.34 3.20L111.89 3.20ZM118.36 16.88L118.36 16.88Q116.27 16.88 114.96 15.59Q113.64 14.31 113.64 12.17L113.64 12.17L113.64 11.93Q113.64 10.49 114.20 9.36Q114.75 8.24 115.77 7.62Q116.78 7.01 118.08 7.01L118.08 7.01Q120.03 7.01 121.15 8.24Q122.27 9.47 122.27 11.73L122.27 11.73L122.27 12.77L116.22 12.77Q116.34 13.70 116.96 14.26Q117.58 14.83 118.53 14.83L118.53 14.83Q120.00 14.83 120.82 13.76L120.82 13.76L122.07 15.16Q121.50 15.97 120.52 16.42Q119.55 16.88 118.36 16.88ZM118.07 9.07L118.07 9.07Q117.32 9.07 116.85 9.58Q116.38 10.09 116.24 11.04L116.24 11.04L119.78 11.04L119.78 10.84Q119.76 9.99 119.32 9.53Q118.88 9.07 118.07 9.07ZM129.09 7.13L129.06 9.57Q128.54 9.50 128.14 9.50L128.14 9.50Q126.70 9.50 126.25 10.48L126.25 10.48L126.25 16.70L123.71 16.70L123.71 7.19L126.11 7.19L126.18 8.32Q126.95 7.01 128.30 7.01L128.30 7.01Q128.72 7.01 129.09 7.13L129.09 7.13ZM129.42 19.91L129.42 19.91L128.09 19.21L128.41 18.64Q129.00 17.57 129.01 16.51L129.01 16.51L129.01 14.54L131.16 14.54L131.15 16.29Q131.14 17.27 130.66 18.26Q130.17 19.26 129.42 19.91ZM146.91 3.90L146.91 6.04L142.99 6.04L142.99 16.70L140.35 16.70L140.35 6.04L136.49 6.04L136.49 3.90L146.91 3.90ZM150.72 3.20L150.72 8.23Q151.73 7.01 153.26 7.01L153.26 7.01Q156.36 7.01 156.40 10.61L156.40 10.61L156.40 16.70L153.86 16.70L153.86 10.68Q153.86 9.86 153.51 9.47Q153.16 9.08 152.34 9.08L152.34 9.08Q151.22 9.08 150.72 9.94L150.72 9.94L150.72 16.70L148.18 16.70L148.18 3.20L150.72 3.20ZM162.69 16.88L162.69 16.88Q160.60 16.88 159.29 15.59Q157.97 14.31 157.97 12.17L157.97 12.17L157.97 11.93Q157.97 10.49 158.53 9.36Q159.08 8.24 160.10 7.62Q161.11 7.01 162.41 7.01L162.41 7.01Q164.36 7.01 165.48 8.24Q166.61 9.47 166.61 11.73L166.61 11.73L166.61 12.77L160.55 12.77Q160.67 13.70 161.29 14.26Q161.91 14.83 162.86 14.83L162.86 14.83Q164.33 14.83 165.16 13.76L165.16 13.76L166.40 15.16Q165.83 15.97 164.86 16.42Q163.88 16.88 162.69 16.88ZM162.40 9.07L162.40 9.07Q161.65 9.07 161.18 9.58Q160.71 10.09 160.58 11.04L160.58 11.04L164.11 11.04L164.11 10.84Q164.09 9.99 163.65 9.53Q163.21 9.07 162.40 9.07ZM180.11 12.44L182.74 12.44Q182.59 14.50 181.22 15.69Q179.84 16.88 177.59 16.88L177.59 16.88Q175.13 16.88 173.72 15.22Q172.31 13.56 172.31 10.67L172.31 10.67L172.31 9.89Q172.31 8.04 172.96 6.64Q173.61 5.23 174.82 4.48Q176.03 3.73 177.63 3.73L177.63 3.73Q179.84 3.73 181.20 4.91Q182.55 6.10 182.76 8.24L182.76 8.24L180.12 8.24Q180.03 7.00 179.43 6.45Q178.84 5.89 177.63 5.89L177.63 5.89Q176.31 5.89 175.65 6.83Q175.00 7.78 174.98 9.76L174.98 9.76L174.98 10.73Q174.98 12.81 175.61 13.76Q176.24 14.72 177.59 14.72L177.59 14.72Q178.81 14.72 179.42 14.16Q180.02 13.61 180.11 12.44L180.11 12.44ZM189.69 7.13L189.65 9.57Q189.13 9.50 188.74 9.50L188.74 9.50Q187.29 9.50 186.85 10.48L186.85 10.48L186.85 16.70L184.31 16.70L184.31 7.19L186.71 7.19L186.78 8.32Q187.54 7.01 188.89 7.01L188.89 7.01Q189.32 7.01 189.69 7.13L189.69 7.13ZM195.08 16.88L195.08 16.88Q192.99 16.88 191.68 15.59Q190.36 14.31 190.36 12.17L190.36 12.17L190.36 11.93Q190.36 10.49 190.92 9.36Q191.47 8.24 192.48 7.62Q193.50 7.01 194.80 7.01L194.80 7.01Q196.75 7.01 197.87 8.24Q198.99 9.47 198.99 11.73L198.99 11.73L198.99 12.77L192.94 12.77Q193.06 13.70 193.68 14.26Q194.30 14.83 195.25 14.83L195.25 14.83Q196.72 14.83 197.54 13.76L197.54 13.76L198.79 15.16Q198.22 15.97 197.24 16.42Q196.27 16.88 195.08 16.88ZM194.79 9.07L194.79 9.07Q194.04 9.07 193.57 9.58Q193.10 10.09 192.96 11.04L192.96 11.04L196.50 11.04L196.50 10.84Q196.48 9.99 196.04 9.53Q195.60 9.07 194.79 9.07ZM208.51 16.70L205.95 16.70Q205.77 16.36 205.69 15.85L205.69 15.85Q204.77 16.88 203.29 16.88L203.29 16.88Q201.89 16.88 200.98 16.07Q200.06 15.26 200.06 14.03L200.06 14.03Q200.06 12.52 201.18 11.71Q202.30 10.90 204.42 10.89L204.42 10.89L205.58 10.89L205.58 10.34Q205.58 9.69 205.25 9.29Q204.91 8.89 204.18 8.89L204.18 8.89Q203.54 8.89 203.17 9.20Q202.81 9.51 202.81 10.05L202.81 10.05L200.27 10.05Q200.27 9.22 200.78 8.52Q201.29 7.81 202.22 7.41Q203.15 7.01 204.31 7.01L204.31 7.01Q206.07 7.01 207.10 7.90Q208.13 8.78 208.13 10.38L208.13 10.38L208.13 14.50Q208.14 15.86 208.51 16.55L208.51 16.55L208.51 16.70ZM203.84 14.93L203.84 14.93Q204.41 14.93 204.88 14.68Q205.36 14.43 205.58 14.01L205.58 14.01L205.58 12.38L204.64 12.38Q202.73 12.38 202.61 13.69L202.61 13.69L202.60 13.84Q202.60 14.32 202.93 14.63Q203.26 14.93 203.84 14.93ZM210.59 4.85L213.13 4.85L213.13 7.19L214.75 7.19L214.75 9.05L213.13 9.05L213.13 13.80Q213.13 14.33 213.33 14.55Q213.53 14.78 214.10 14.78L214.10 14.78Q214.52 14.78 214.85 14.72L214.85 14.72L214.85 16.65Q214.10 16.88 213.31 16.88L213.31 16.88Q210.64 16.88 210.59 14.18L210.59 14.18L210.59 9.05L209.20 9.05L209.20 7.19L210.59 7.19L210.59 4.85ZM215.51 11.97L215.51 11.86Q215.51 10.44 216.05 9.33Q216.60 8.23 217.62 7.62Q218.65 7.01 220.00 7.01L220.00 7.01Q221.92 7.01 223.14 8.19Q224.36 9.37 224.50 11.39L224.50 11.39L224.52 12.04Q224.52 14.23 223.29 15.55Q222.07 16.88 220.02 16.88Q217.96 16.88 216.73 15.56Q215.51 14.24 215.51 11.97L215.51 11.97ZM218.05 12.04L218.05 12.04Q218.05 13.39 218.56 14.11Q219.07 14.83 220.02 14.83L220.02 14.83Q220.94 14.83 221.46 14.12Q221.98 13.41 221.98 11.86L221.98 11.86Q221.98 10.53 221.46 9.80Q220.94 9.07 220.00 9.07L220.00 9.07Q219.07 9.07 218.56 9.80Q218.05 10.52 218.05 12.04ZM231.46 7.13L231.42 9.57Q230.91 9.50 230.51 9.50L230.51 9.50Q229.07 9.50 228.62 10.48L228.62 10.48L228.62 16.70L226.08 16.70L226.08 7.19L228.48 7.19L228.55 8.32Q229.32 7.01 230.67 7.01L230.67 7.01Q231.09 7.01 231.46 7.13L231.46 7.13ZM231.79 19.91L231.79 19.91L230.46 19.21L230.77 18.64Q231.36 17.57 231.38 16.51L231.38 16.51L231.38 14.54L233.53 14.54L233.52 16.29Q233.51 17.27 233.02 18.26Q232.54 19.26 231.79 19.91ZM248.08 16.70L245.51 16.70Q245.34 16.36 245.26 15.85L245.26 15.85Q244.34 16.88 242.86 16.88L242.86 16.88Q241.46 16.88 240.54 16.07Q239.63 15.26 239.63 14.03L239.63 14.03Q239.63 12.52 240.75 11.71Q241.87 10.90 243.98 10.89L243.98 10.89L245.15 10.89L245.15 10.34Q245.15 9.69 244.81 9.29Q244.48 8.89 243.75 8.89L243.75 8.89Q243.11 8.89 242.74 9.20Q242.38 9.51 242.38 10.05L242.38 10.05L239.84 10.05Q239.84 9.22 240.35 8.52Q240.86 7.81 241.79 7.41Q242.72 7.01 243.88 7.01L243.88 7.01Q245.64 7.01 246.67 7.90Q247.70 8.78 247.70 10.38L247.70 10.38L247.70 14.50Q247.71 15.86 248.08 16.55L248.08 16.55L248.08 16.70ZM243.41 14.93L243.41 14.93Q243.98 14.93 244.45 14.68Q244.92 14.43 245.15 14.01L245.15 14.01L245.15 12.38L244.20 12.38Q242.30 12.38 242.17 13.69L242.17 13.69L242.17 13.84Q242.17 14.32 242.50 14.63Q242.83 14.93 243.41 14.93ZM249.60 7.19L251.99 7.19L252.07 8.29Q253.09 7.01 254.80 7.01L254.80 7.01Q256.32 7.01 257.05 7.90Q257.79 8.79 257.81 10.56L257.81 10.56L257.81 16.70L255.27 16.70L255.27 10.62Q255.27 9.81 254.92 9.44Q254.57 9.08 253.75 9.08L253.75 9.08Q252.68 9.08 252.14 9.99L252.14 9.99L252.14 16.70L249.60 16.70L249.60 7.19ZM259.34 11.87L259.34 11.87Q259.34 9.65 260.34 8.33Q261.33 7.01 263.07 7.01L263.07 7.01Q264.45 7.01 265.36 8.05L265.36 8.05L265.36 3.20L267.91 3.20L267.91 16.70L265.61 16.70L265.49 15.69Q264.54 16.88 263.05 16.88L263.05 16.88Q261.37 16.88 260.35 15.55Q259.34 14.23 259.34 11.87ZM261.88 12.06L261.88 12.06Q261.88 13.39 262.34 14.11Q262.81 14.82 263.70 14.82L263.70 14.82Q264.88 14.82 265.36 13.83L265.36 13.83L265.36 10.07Q264.88 9.08 263.72 9.08L263.72 9.08Q261.88 9.08 261.88 12.06ZM279.50 16.70L274.53 16.70L274.53 3.90L279.01 3.90Q281.34 3.90 282.54 4.79Q283.75 5.69 283.75 7.41L283.75 7.41Q283.75 8.35 283.26 9.07Q282.78 9.78 281.92 10.12L281.92 10.12Q282.90 10.36 283.47 11.11Q284.04 11.86 284.04 12.94L284.04 12.94Q284.04 14.78 282.86 15.73Q281.68 16.68 279.50 16.70L279.50 16.70ZM279.58 11.13L277.16 11.13L277.16 14.58L279.42 14.58Q280.35 14.58 280.88 14.14Q281.40 13.69 281.40 12.91L281.40 12.91Q281.40 11.15 279.58 11.13L279.58 11.13ZM277.16 6.04L277.16 9.26L279.11 9.26Q281.11 9.23 281.11 7.67L281.11 7.67Q281.11 6.80 280.60 6.42Q280.10 6.04 279.01 6.04L279.01 6.04L277.16 6.04ZM285.45 11.97L285.45 11.86Q285.45 10.44 286.00 9.33Q286.54 8.23 287.56 7.62Q288.59 7.01 289.94 7.01L289.94 7.01Q291.87 7.01 293.08 8.19Q294.30 9.37 294.44 11.39L294.44 11.39L294.46 12.04Q294.46 14.23 293.24 15.55Q292.02 16.88 289.96 16.88Q287.90 16.88 286.68 15.56Q285.45 14.24 285.45 11.97L285.45 11.97ZM287.99 12.04L287.99 12.04Q287.99 13.39 288.50 14.11Q289.01 14.83 289.96 14.83L289.96 14.83Q290.88 14.83 291.40 14.12Q291.92 13.41 291.92 11.86L291.92 11.86Q291.92 10.53 291.40 9.80Q290.88 9.07 289.94 9.07L289.94 9.07Q289.01 9.07 288.50 9.80Q287.99 10.52 287.99 12.04ZM295.63 11.97L295.63 11.86Q295.63 10.44 296.17 9.33Q296.72 8.23 297.74 7.62Q298.77 7.01 300.12 7.01L300.12 7.01Q302.04 7.01 303.26 8.19Q304.48 9.37 304.62 11.39L304.62 11.39L304.64 12.04Q304.64 14.23 303.42 15.55Q302.19 16.88 300.14 16.88Q298.08 16.88 296.85 15.56Q295.63 14.24 295.63 11.97L295.63 11.97ZM298.17 12.04L298.17 12.04Q298.17 13.39 298.68 14.11Q299.19 14.83 300.14 14.83L300.14 14.83Q301.06 14.83 301.58 14.12Q302.10 13.41 302.10 11.86L302.10 11.86Q302.10 10.53 301.58 9.80Q301.06 9.07 300.12 9.07L300.12 9.07Q299.19 9.07 298.68 9.80Q298.17 10.52 298.17 12.04ZM306.70 4.85L309.24 4.85L309.24 7.19L310.87 7.19L310.87 9.05L309.24 9.05L309.24 13.80Q309.24 14.33 309.45 14.55Q309.65 14.78 310.22 14.78L310.22 14.78Q310.64 14.78 310.97 14.72L310.97 14.72L310.97 16.65Q310.22 16.88 309.43 16.88L309.43 16.88Q306.76 16.88 306.70 14.18L306.70 14.18L306.70 9.05L305.31 9.05L305.31 7.19L306.70 7.19L306.70 4.85ZM317.43 14.07L317.43 14.07Q317.43 13.61 316.97 13.34Q316.51 13.07 315.49 12.86L315.49 12.86Q312.10 12.15 312.10 9.98L312.10 9.98Q312.10 8.71 313.15 7.86Q314.20 7.01 315.90 7.01L315.90 7.01Q317.71 7.01 318.79 7.87Q319.88 8.72 319.88 10.08L319.88 10.08L317.34 10.08Q317.34 9.54 316.99 9.18Q316.63 8.82 315.89 8.82L315.89 8.82Q315.25 8.82 314.89 9.11Q314.54 9.40 314.54 9.85L314.54 9.85Q314.54 10.27 314.94 10.53Q315.34 10.79 316.29 10.98Q317.24 11.17 317.89 11.41L317.89 11.41Q319.90 12.15 319.90 13.97L319.90 13.97Q319.90 15.27 318.79 16.07Q317.67 16.88 315.91 16.88L315.91 16.88Q314.71 16.88 313.78 16.45Q312.86 16.02 312.33 15.28Q311.80 14.54 311.80 13.68L311.80 13.68L314.21 13.68Q314.24 14.35 314.71 14.71Q315.18 15.07 315.96 15.07L315.96 15.07Q316.69 15.07 317.06 14.80Q317.43 14.52 317.43 14.07ZM323.32 7.19L325.09 13.10L326.85 7.19L329.57 7.19L325.75 18.18L325.54 18.68Q324.69 20.54 322.73 20.54L322.73 20.54Q322.17 20.54 321.60 20.37L321.60 20.37L321.60 18.45L321.99 18.46Q322.71 18.46 323.06 18.24Q323.42 18.02 323.62 17.51L323.62 17.51L323.92 16.73L320.59 7.19L323.32 7.19ZM342.63 12.44L345.27 12.44Q345.12 14.50 343.74 15.69Q342.37 16.88 340.12 16.88L340.12 16.88Q337.66 16.88 336.25 15.22Q334.84 13.56 334.84 10.67L334.84 10.67L334.84 9.89Q334.84 8.04 335.49 6.64Q336.14 5.23 337.35 4.48Q338.55 3.73 340.15 3.73L340.15 3.73Q342.37 3.73 343.72 4.91Q345.08 6.10 345.29 8.24L345.29 8.24L342.65 8.24Q342.55 7.00 341.96 6.45Q341.37 5.89 340.15 5.89L340.15 5.89Q338.84 5.89 338.18 6.83Q337.53 7.78 337.51 9.76L337.51 9.76L337.51 10.73Q337.51 12.81 338.14 13.76Q338.77 14.72 340.12 14.72L340.12 14.72Q341.34 14.72 341.94 14.16Q342.54 13.61 342.63 12.44L342.63 12.44ZM346.44 11.97L346.44 11.86Q346.44 10.44 346.98 9.33Q347.53 8.23 348.55 7.62Q349.58 7.01 350.93 7.01L350.93 7.01Q352.85 7.01 354.07 8.19Q355.29 9.37 355.43 11.39L355.43 11.39L355.45 12.04Q355.45 14.23 354.23 15.55Q353.00 16.88 350.95 16.88Q348.89 16.88 347.66 15.56Q346.44 14.24 346.44 11.97L346.44 11.97ZM348.98 12.04L348.98 12.04Q348.98 13.39 349.49 14.11Q350.00 14.83 350.95 14.83L350.95 14.83Q351.87 14.83 352.39 14.12Q352.91 13.41 352.91 11.86L352.91 11.86Q352.91 10.53 352.39 9.80Q351.87 9.07 350.93 9.07L350.93 9.07Q350.00 9.07 349.49 9.80Q348.98 10.52 348.98 12.04ZM359.69 3.20L359.69 16.70L357.14 16.70L357.14 3.20L359.69 3.20ZM364.46 3.20L364.46 16.70L361.92 16.70L361.92 3.20L364.46 3.20ZM369.24 7.19L369.24 16.70L366.69 16.70L366.69 7.19L369.24 7.19ZM366.54 4.73L366.54 4.73Q366.54 4.16 366.92 3.79Q367.30 3.42 367.96 3.42L367.96 3.42Q368.61 3.42 369 3.79Q369.39 4.16 369.39 4.73L369.39 4.73Q369.39 5.31 369.00 5.68Q368.60 6.05 367.96 6.05Q367.32 6.05 366.93 5.68Q366.54 5.31 366.54 4.73ZM371.28 7.19L373.67 7.19L373.75 8.29Q374.77 7.01 376.48 7.01L376.48 7.01Q377.99 7.01 378.73 7.90Q379.47 8.79 379.49 10.56L379.49 10.56L379.49 16.70L376.95 16.70L376.95 10.62Q376.95 9.81 376.59 9.44Q376.24 9.08 375.42 9.08L375.42 9.08Q374.35 9.08 373.82 9.99L373.82 9.99L373.82 16.70L371.28 16.70L371.28 7.19ZM386.56 14.07L386.56 14.07Q386.56 13.61 386.10 13.34Q385.64 13.07 384.62 12.86L384.62 12.86Q381.23 12.15 381.23 9.98L381.23 9.98Q381.23 8.71 382.28 7.86Q383.33 7.01 385.02 7.01L385.02 7.01Q386.83 7.01 387.92 7.87Q389.00 8.72 389.00 10.08L389.00 10.08L386.46 10.08Q386.46 9.54 386.11 9.18Q385.76 8.82 385.01 8.82L385.01 8.82Q384.37 8.82 384.02 9.11Q383.67 9.40 383.67 9.85L383.67 9.85Q383.67 10.27 384.07 10.53Q384.47 10.79 385.42 10.98Q386.37 11.17 387.02 11.41L387.02 11.41Q389.03 12.15 389.03 13.97L389.03 13.97Q389.03 15.27 387.91 16.07Q386.80 16.88 385.03 16.88L385.03 16.88Q383.84 16.88 382.91 16.45Q381.98 16.02 381.45 15.28Q380.93 14.54 380.93 13.68L380.93 13.68L383.33 13.68Q383.37 14.35 383.84 14.71Q384.30 15.07 385.08 15.07L385.08 15.07Q385.81 15.07 386.19 14.80Q386.56 14.52 386.56 14.07Z"/></svg>