<svg width="310px" height="380px" xmlns="http://www.w3.org/2000/svg">
	<defs>
		<style type="text/css">
			@font-face {
			    font-family: Roboto;
			    src: url('https://spotify-playing-letti42.onrender.com/Roboto-Bold.ttf');
			}
		</style>
	</defs>
	<style>
		.track{
		    font-size:20px;
		    text-align:center;
		    fill:#a9fef7;
		    font-weight:bold;
            font-family:'Roboto'
		}
		.artist{
		    font-size:18px;
		    text-align:center;
		    fill:#d83b7d;
		    font-weight:bold;
            font-family:'Roboto'
		}
		.time{
		    font-size:12px;
		    fill:#696969;
		    font-weight:bold;
            font-family:'Roboto';
		}

		.one{
			font-size:7px;
			font-family:'Roboto';
			font-weight:bold;
			fill:#21ca1e;
		}
		
		.min, .sec_ten, .sec_one{
			opacity:0;
		}

		.sec_one{
            animation-duration: 10s;
            animation-iteration-count: infinite;
			animation-timing-function: step-end;
		}

		.sec_ten{
            animation-duration: 60s;
            animation-iteration-count: infinite;
			animation-timing-function: step-end;
		}

		.min{
            animation-duration: 600s;
            animation-iteration-count: infinite;
			animation-timing-function: step-end;
		}

		@keyframes move{
            0%{
                transform:translateX(0px);
            }
            100%{
                transform:translateX(250px);
            }
        }

		@keyframes addWidth{
			0%{
				width:0px;
			}
			100%{
				width:250px;
			}
		}

		@keyframes seconds_one{
			0%{
				opacity:1;
			}
			10%, 100%{
				opacity:0;
			}
		}

		@keyframes seconds_ten{
			0%{
				opacity:1;
			}

			16.667%, 100%{
				opacity:0;
			}
		}
		@keyframes minutes{
			0%{
				opacity:1;
			}

			10%, 100%{
				opacity:0;
			}
		}
	</style>
	<!-- Rounded corner rectangle -->
	<rect x="5" y="5" width="300" height="370" rx="20" fill="#202020" />


    <style>

        .startMoving{
            animation-name:move;
            animation-duration: 207.454s;
            animation-iteration-count: 1;
            animation-timing-function: linear;
            animation-fill-mode: forwards;
            animation-delay: -100.671s;
        }

        .startWidth{
            animation-name:addWidth;
            animation-duration: 207.454s;
            animation-iteration-count: 1;
            animation-timing-function: linear;
            animation-fill-mode: forwards;
            animation-delay: -100.671s;
        }


    </style>
    <style>
        .m1{
            opacity:1;
        }
        .st4{
            opacity:1;
        }
        .so0{
            opacity:1;
        }
    </style>
    
    <image href="https://i.scdn.co/image/ab67616d00001e0290b4e1905b1fc48c537ec053" height="230" width="230" x="40" y="40" />
    <rect x="30" y="300" width="250" height="3" rx="2" fill="#696969" />
    <rect x="30" y="300" width="121.31725587359125" height="3" rx="2" fill="#495151" class="startWidth1"/>
    <circle r="5" cx="151.31725587359125" cy="301" fill="#969696" class="startMoving1"></circle>
    <text class="time" y="320" x="270">3:27</text>
    <polygon points="150,314 150,332 165,323" style="fill:#696969;" />
    <svg role="img" height="16" width="16" y="315" x="100" aria-hidden="true" viewBox="0 0 16 16" fill="#21ca1e" data-encore-id="icon"><path d="M13.151.922a.75.75 0 1 0-1.06 1.06L13.109 3H11.16a3.75 3.75 0 0 0-2.873 1.34l-6.173 7.356A2.25 2.25 0 0 1 .39 12.5H0V14h.391a3.75 3.75 0 0 0 2.873-1.34l6.173-7.356a2.25 2.25 0 0 1 1.724-.804h1.947l-1.017 1.018a.75.75 0 0 0 1.06 1.06L15.98 3.75 13.15.922zM.391 3.5H0V2h.391c1.109 0 2.16.49 2.873 1.34L4.89 5.277l-.979 1.167-1.796-2.14A2.25 2.25 0 0 0 .39 3.5z"></path><path d="m7.5 10.723.98-1.167.957 1.14a2.25 2.25 0 0 0 1.724.804h1.947l-1.017-1.018a.75.75 0 1 1 1.06-1.06l2.829 2.828-2.829 2.828a.75.75 0 1 1-1.06-1.06L13.109 13H11.16a3.75 3.75 0 0 1-2.873-1.34l-.787-.938z"></path></svg>
    <svg role="img" height="16" width="16" y="316" x="196" aria-hidden="true" viewBox="0 0 16 16" fill="#21ca1e" data-encore-id="icon"><path d="M0 4.75A3.75 3.75 0 0 1 3.75 1h8.5A3.75 3.75 0 0 1 16 4.75v5a3.75 3.75 0 0 1-3.75 3.75H9.81l1.018 1.018a.75.75 0 1 1-1.06 1.06L6.939 12.75l2.829-2.828a.75.75 0 1 1 1.06 1.06L9.811 12h2.439a2.25 2.25 0 0 0 2.25-2.25v-5a2.25 2.25 0 0 0-2.25-2.25h-8.5A2.25 2.25 0 0 0 1.5 4.75v5A2.25 2.25 0 0 0 3.75 12H5v1.5H3.75A3.75 3.75 0 0 1 0 9.75v-5z"></path></svg>
    <text class="one" y="325" x="202" style="opacity:0">1</text>
    <svg width="20" height="20" y="345" x="147" viewBox="0 0 16 16" xmlns="http://www.w3.org/2000/svg" fill="none"><path fill="#21ca1e" fill-rule="evenodd" d="M8 3.517a1 1 0 011.62-.784l5.348 4.233a1 1 0 010 1.568l-5.347 4.233A1 1 0 018 11.983v-1.545c-.76-.043-1.484.003-2.254.218-.994.279-2.118.857-3.506 1.99a.993.993 0 01-1.129.096.962.962 0 01-.445-1.099c.415-1.5 1.425-3.141 2.808-4.412C4.69 6.114 6.244 5.241 8 5.042V3.517zm1.5 1.034v1.2a.75.75 0 01-.75.75c-1.586 0-3.066.738-4.261 1.835a8.996 8.996 0 00-1.635 2.014c.878-.552 1.695-.916 2.488-1.138 1.247-.35 2.377-.33 3.49-.207a.75.75 0 01.668.745v1.2l4.042-3.2L9.5 4.55z" clip-rule="evenodd"/></svg>
    <text y="320" x="17" class="min time m0">0:</text>
    <text y="320" x="17" class="min time m1">1:</text>
    <text y="320" x="17" class="min time m2">2:</text>
    <text y="320" x="17" class="min time m3">3:</text>
    <text y="320" x="17" class="min time m4">4:</text>
    <text y="320" x="17" class="min time m5">5:</text>
    <text y="320" x="17" class="min time m6">6:</text>
    <text y="320" x="17" class="min time m7">7:</text>
    <text y="320" x="17" class="min time m8">8:</text>
    <text y="320" x="17" class="min time m9">9:</text>
    
    <text y="320" x="27" class="sec_ten time st0">0</text>
    <text y="320" x="27" class="sec_ten time st1">1</text>
    <text y="320" x="27" class="sec_ten time st2">2</text>
    <text y="320" x="27" class="sec_ten time st3">3</text>
    <text y="320" x="27" class="sec_ten time st4">4</text>
    <text y="320" x="27" class="sec_ten time st5">5</text>

    <text y="320" x="34" class="sec_one time so0">0</text>
    <text y="320" x="34" class="sec_one time so1">1</text>
    <text y="320" x="34" class="sec_one time so2">2</text>
    <text y="320" x="34" class="sec_one time so3">3</text>
    <text y="320" x="34" class="sec_one time so4">4</text>
    <text y="320" x="34" class="sec_one time so5">5</text>
    <text y="320" x="34" class="sec_one time so6">6</text>
    <text y="320" x="34" class="sec_one time so7">7</text>
    <text y="320" x="34" class="sec_one time so8">8</text>
    <text y="320" x="34" class="sec_one time so9">9</text>
</svg>
