<svg xmlns="http://www.w3.org/2000/svg" xmlns:xlink="http://www.w3.org/1999/xlink" width="519.47265625" height="23.4375"><path fill="#a9fef7" d="M10.28 18.55L9.30 15.63L4.16 15.63L3.18 18.55L0.07 18.55L5.36 4.34L8.08 4.34L13.40 18.55L10.28 18.55ZM6.72 7.93L4.95 13.25L8.51 13.25L6.72 7.93ZM18.14 18.55L15.31 18.55L15.31 10.06L13.74 10.06L13.74 7.99L15.31 7.99L15.31 7.09Q15.31 5.31 16.33 4.33Q17.35 3.35 19.19 3.35L19.19 3.35Q19.78 3.35 20.63 3.54L20.63 3.54L20.60 5.73Q20.24 5.64 19.74 5.64L19.74 5.64Q18.14 5.64 18.14 7.14L18.14 7.14L18.14 7.99L20.24 7.99L20.24 10.06L18.14 10.06L18.14 18.55ZM22.27 5.39L25.09 5.39L25.09 7.99L26.89 7.99L26.89 10.06L25.09 10.06L25.09 15.33Q25.09 15.92 25.31 16.17Q25.54 16.43 26.17 16.43L26.17 16.43Q26.64 16.43 27.00 16.36L27.00 16.36L27.00 18.50Q26.17 18.75 25.29 18.75L25.29 18.75Q22.32 18.75 22.27 15.75L22.27 15.75L22.27 10.06L20.72 10.06L20.72 7.99L22.27 7.99L22.27 5.39ZM33.33 18.75L33.33 18.75Q31.01 18.75 29.55 17.32Q28.09 15.90 28.09 13.53L28.09 13.53L28.09 13.25Q28.09 11.66 28.70 10.41Q29.32 9.15 30.44 8.47Q31.57 7.79 33.02 7.79L33.02 7.79Q35.19 7.79 36.43 9.16Q37.68 10.53 37.68 13.04L37.68 13.04L37.68 14.19L30.95 14.19Q31.08 15.22 31.77 15.85Q32.46 16.47 33.52 16.47L33.52 16.47Q35.15 16.47 36.06 15.29L36.06 15.29L37.45 16.85Q36.82 17.74 35.73 18.25Q34.65 18.75 33.33 18.75ZM33.01 10.08L33.01 10.08Q32.17 10.08 31.65 10.64Q31.12 11.21 30.98 12.27L30.98 12.27L34.90 12.27L34.90 12.04Q34.88 11.10 34.39 10.59Q33.91 10.08 33.01 10.08ZM45.25 7.92L45.21 10.63Q44.64 10.56 44.20 10.56L44.20 10.56Q42.60 10.56 42.10 11.64L42.10 11.64L42.10 18.55L39.28 18.55L39.28 7.99L41.94 7.99L42.02 9.25Q42.87 7.79 44.38 7.79L44.38 7.79Q44.84 7.79 45.25 7.92L45.25 7.92ZM61.86 4.34L61.86 6.71L57.50 6.71L57.50 18.55L54.57 18.55L54.57 6.71L50.27 6.71L50.27 4.34L61.86 4.34ZM66.09 3.55L66.09 9.14Q67.22 7.79 68.92 7.79L68.92 7.79Q72.35 7.79 72.40 11.79L72.40 11.79L72.40 18.55L69.58 18.55L69.58 11.87Q69.58 10.96 69.19 10.52Q68.80 10.09 67.89 10.09L67.89 10.09Q66.65 10.09 66.09 11.04L66.09 11.04L66.09 18.55L63.27 18.55L63.27 3.55L66.09 3.55ZM79.39 18.75L79.39 18.75Q77.07 18.75 75.61 17.32Q74.15 15.90 74.15 13.53L74.15 13.53L74.15 13.25Q74.15 11.66 74.77 10.41Q75.38 9.15 76.51 8.47Q77.64 7.79 79.08 7.79L79.08 7.79Q81.25 7.79 82.50 9.16Q83.74 10.53 83.74 13.04L83.74 13.04L83.74 14.19L77.01 14.19Q77.15 15.22 77.84 15.85Q78.53 16.47 79.58 16.47L79.58 16.47Q81.21 16.47 82.13 15.29L82.13 15.29L83.52 16.85Q82.88 17.74 81.80 18.25Q80.71 18.75 79.39 18.75ZM79.07 10.08L79.07 10.08Q78.23 10.08 77.71 10.64Q77.19 11.21 77.04 12.27L77.04 12.27L80.97 12.27L80.97 12.04Q80.95 11.10 80.46 10.59Q79.97 10.08 79.07 10.08ZM97.88 14.82L97.88 14.82Q97.88 13.99 97.29 13.55Q96.71 13.11 95.19 12.61Q93.66 12.12 92.77 11.64L92.77 11.64Q90.35 10.33 90.35 8.12L90.35 8.12Q90.35 6.96 91.00 6.06Q91.65 5.16 92.87 4.65Q94.08 4.14 95.60 4.14L95.60 4.14Q97.12 4.14 98.31 4.69Q99.50 5.24 100.16 6.25Q100.82 7.26 100.82 8.54L100.82 8.54L97.89 8.54Q97.89 7.56 97.28 7.02Q96.66 6.47 95.55 6.47L95.55 6.47Q94.47 6.47 93.88 6.93Q93.28 7.38 93.28 8.13L93.28 8.13Q93.28 8.82 93.98 9.29Q94.68 9.76 96.04 10.17L96.04 10.17Q98.54 10.92 99.68 12.03Q100.82 13.14 100.82 14.80L100.82 14.80Q100.82 16.65 99.42 17.70Q98.03 18.75 95.66 18.75L95.66 18.75Q94.02 18.75 92.68 18.15Q91.33 17.55 90.62 16.50Q89.91 15.46 89.91 14.08L89.91 14.08L92.85 14.08Q92.85 16.44 95.66 16.44L95.66 16.44Q96.71 16.44 97.29 16.01Q97.88 15.59 97.88 14.82ZM103.17 5.39L106.00 5.39L106.00 7.99L107.80 7.99L107.80 10.06L106.00 10.06L106.00 15.33Q106.00 15.92 106.22 16.17Q106.45 16.43 107.08 16.43L107.08 16.43Q107.55 16.43 107.91 16.36L107.91 16.36L107.91 18.50Q107.08 18.75 106.20 18.75L106.20 18.75Q103.23 18.75 103.17 15.75L103.17 15.75L103.17 10.06L101.63 10.06L101.63 7.99L103.17 7.99L103.17 5.39ZM108.64 13.30L108.64 13.17Q108.64 11.60 109.25 10.37Q109.85 9.14 110.99 8.47Q112.13 7.79 113.63 7.79L113.63 7.79Q115.77 7.79 117.12 9.10Q118.48 10.41 118.63 12.66L118.63 12.66L118.65 13.38Q118.65 15.81 117.29 17.28Q115.94 18.75 113.65 18.75Q111.37 18.75 110.00 17.29Q108.64 15.82 108.64 13.30L108.64 13.30ZM111.46 13.38L111.46 13.38Q111.46 14.88 112.03 15.68Q112.60 16.47 113.65 16.47L113.65 16.47Q114.68 16.47 115.25 15.69Q115.83 14.90 115.83 13.17L115.83 13.17Q115.83 11.70 115.25 10.89Q114.68 10.08 113.63 10.08L113.63 10.08Q112.60 10.08 112.03 10.88Q111.46 11.69 111.46 13.38ZM126.37 7.92L126.33 10.63Q125.75 10.56 125.31 10.56L125.31 10.56Q123.71 10.56 123.21 11.64L123.21 11.64L123.21 18.55L120.39 18.55L120.39 7.99L123.06 7.99L123.13 9.25Q123.98 7.79 125.49 7.79L125.49 7.79Q125.96 7.79 126.37 7.92L126.37 7.92ZM127.69 7.99L130.33 7.99L130.42 9.17Q131.54 7.79 133.46 7.79L133.46 7.79Q135.50 7.79 136.26 9.40L136.26 9.40Q137.37 7.79 139.43 7.79L139.43 7.79Q141.15 7.79 141.99 8.79Q142.83 9.79 142.83 11.81L142.83 11.81L142.83 18.55L140 18.55L140 11.82Q140 10.92 139.65 10.50Q139.30 10.09 138.41 10.09L138.41 10.09Q137.14 10.09 136.65 11.30L136.65 11.30L136.66 18.55L133.84 18.55L133.84 11.83Q133.84 10.91 133.48 10.50Q133.12 10.09 132.25 10.09L132.25 10.09Q131.04 10.09 130.51 11.08L130.51 11.08L130.51 18.55L127.69 18.55L127.69 7.99ZM150.11 13.29L150.11 12.77Q150.11 10.54 150.70 8.52Q151.30 6.49 152.46 4.94Q153.62 3.38 154.98 2.77L154.98 2.77L155.53 4.30Q154.10 5.35 153.30 7.56Q152.50 9.77 152.50 12.71L152.50 12.71L152.50 13.02Q152.50 15.98 153.29 18.19Q154.08 20.41 155.53 21.50L155.53 21.50L154.98 23.00Q153.65 22.40 152.50 20.89Q151.36 19.38 150.75 17.41Q150.15 15.44 150.11 13.29L150.11 13.29ZM160.61 18.55L157.77 18.55L157.77 10.06L156.20 10.06L156.20 7.99L157.77 7.99L157.77 7.09Q157.77 5.31 158.79 4.33Q159.81 3.35 161.65 3.35L161.65 3.35Q162.24 3.35 163.09 3.54L163.09 3.54L163.06 5.73Q162.71 5.64 162.20 5.64L162.20 5.64Q160.61 5.64 160.61 7.14L160.61 7.14L160.61 7.99L162.71 7.99L162.71 10.06L160.61 10.06L160.61 18.55ZM168.80 18.75L168.80 18.75Q166.47 18.75 165.01 17.32Q163.55 15.90 163.55 13.53L163.55 13.53L163.55 13.25Q163.55 11.66 164.17 10.41Q164.79 9.15 165.91 8.47Q167.04 7.79 168.49 7.79L168.49 7.79Q170.65 7.79 171.90 9.16Q173.14 10.53 173.14 13.04L173.14 13.04L173.14 14.19L166.42 14.19Q166.55 15.22 167.24 15.85Q167.93 16.47 168.98 16.47L168.98 16.47Q170.62 16.47 171.53 15.29L171.53 15.29L172.92 16.85Q172.29 17.74 171.20 18.25Q170.12 18.75 168.80 18.75ZM168.48 10.08L168.48 10.08Q167.64 10.08 167.11 10.64Q166.59 11.21 166.45 12.27L166.45 12.27L170.37 12.27L170.37 12.04Q170.35 11.10 169.86 10.59Q169.38 10.08 168.48 10.08ZM183.72 18.55L180.87 18.55Q180.67 18.17 180.59 17.61L180.59 17.61Q179.56 18.75 177.92 18.75L177.92 18.75Q176.37 18.75 175.35 17.85Q174.33 16.95 174.33 15.59L174.33 15.59Q174.33 13.91 175.57 13.01Q176.82 12.11 179.17 12.10L179.17 12.10L180.47 12.10L180.47 11.49Q180.47 10.76 180.09 10.32Q179.72 9.88 178.91 9.88L178.91 9.88Q178.19 9.88 177.79 10.22Q177.38 10.57 177.38 11.16L177.38 11.16L174.56 11.16Q174.56 10.24 175.13 9.46Q175.69 8.68 176.73 8.24Q177.76 7.79 179.05 7.79L179.05 7.79Q181.01 7.79 182.15 8.77Q183.30 9.76 183.30 11.53L183.30 11.53L183.30 16.11Q183.31 17.62 183.72 18.39L183.72 18.39L183.72 18.55ZM178.54 16.59L178.54 16.59Q179.16 16.59 179.69 16.31Q180.21 16.04 180.47 15.57L180.47 15.57L180.47 13.75L179.41 13.75Q177.29 13.75 177.16 15.21L177.16 15.21L177.15 15.38Q177.15 15.91 177.52 16.25Q177.89 16.59 178.54 16.59ZM186.03 5.39L188.85 5.39L188.85 7.99L190.65 7.99L190.65 10.06L188.85 10.06L188.85 15.33Q188.85 15.92 189.07 16.17Q189.30 16.43 189.93 16.43L189.93 16.43Q190.40 16.43 190.76 16.36L190.76 16.36L190.76 18.50Q189.93 18.75 189.05 18.75L189.05 18.75Q186.08 18.75 186.03 15.75L186.03 15.75L186.03 10.06L184.48 10.06L184.48 7.99L186.03 7.99L186.03 5.39ZM192.37 17.17L192.37 17.17Q192.37 16.49 192.83 16.07Q193.28 15.65 193.96 15.65L193.96 15.65Q194.66 15.65 195.11 16.07Q195.57 16.49 195.57 17.17L195.57 17.17Q195.57 17.83 195.12 18.25Q194.67 18.66 193.96 18.66L193.96 18.66Q193.27 18.66 192.82 18.25Q192.37 17.83 192.37 17.17ZM213.32 4.34L213.32 6.71L208.96 6.71L208.96 18.55L206.04 18.55L206.04 6.71L201.74 6.71L201.74 4.34L213.32 4.34ZM215.99 7.99L217.95 14.56L219.90 7.99L222.93 7.99L218.68 20.20L218.45 20.75Q217.50 22.82 215.32 22.82L215.32 22.82Q214.71 22.82 214.07 22.64L214.07 22.64L214.07 20.50L214.50 20.51Q215.30 20.51 215.70 20.26Q216.09 20.02 216.32 19.45L216.32 19.45L216.65 18.58L212.95 7.99L215.99 7.99ZM227.02 3.55L227.02 18.55L224.19 18.55L224.19 3.55L227.02 3.55ZM234.21 18.75L234.21 18.75Q231.88 18.75 230.42 17.32Q228.96 15.90 228.96 13.53L228.96 13.53L228.96 13.25Q228.96 11.66 229.58 10.41Q230.20 9.15 231.32 8.47Q232.45 7.79 233.90 7.79L233.90 7.79Q236.06 7.79 237.31 9.16Q238.55 10.53 238.55 13.04L238.55 13.04L238.55 14.19L231.83 14.19Q231.96 15.22 232.65 15.85Q233.34 16.47 234.39 16.47L234.39 16.47Q236.03 16.47 236.94 15.29L236.94 15.29L238.33 16.85Q237.70 17.74 236.61 18.25Q235.53 18.75 234.21 18.75ZM233.89 10.08L233.89 10.08Q233.05 10.08 232.52 10.64Q232.00 11.21 231.86 12.27L231.86 12.27L235.78 12.27L235.78 12.04Q235.76 11.10 235.27 10.59Q234.79 10.08 233.89 10.08ZM246.13 7.92L246.09 10.63Q245.52 10.56 245.08 10.56L245.08 10.56Q243.48 10.56 242.98 11.64L242.98 11.64L242.98 18.55L240.16 18.55L240.16 7.99L242.82 7.99L242.90 9.25Q243.75 7.79 245.25 7.79L245.25 7.79Q245.72 7.79 246.13 7.92L246.13 7.92ZM246.49 22.12L246.49 22.12L245.02 21.35L245.37 20.71Q246.03 19.52 246.04 18.34L246.04 18.34L246.04 16.15L248.43 16.15L248.42 18.11Q248.41 19.19 247.87 20.29Q247.33 21.40 246.49 22.12ZM265.93 4.34L265.93 6.71L261.57 6.71L261.57 18.55L258.64 18.55L258.64 6.71L254.35 6.71L254.35 4.34L265.93 4.34ZM270.17 3.55L270.17 9.14Q271.29 7.79 272.99 7.79L272.99 7.79Q276.43 7.79 276.47 11.79L276.47 11.79L276.47 18.55L273.65 18.55L273.65 11.87Q273.65 10.96 273.26 10.52Q272.87 10.09 271.96 10.09L271.96 10.09Q270.72 10.09 270.17 11.04L270.17 11.04L270.17 18.55L267.34 18.55L267.34 3.55L270.17 3.55ZM283.47 18.75L283.47 18.75Q281.14 18.75 279.68 17.32Q278.22 15.90 278.22 13.53L278.22 13.53L278.22 13.25Q278.22 11.66 278.84 10.41Q279.45 9.15 280.58 8.47Q281.71 7.79 283.15 7.79L283.15 7.79Q285.32 7.79 286.57 9.16Q287.81 10.53 287.81 13.04L287.81 13.04L287.81 14.19L281.08 14.19Q281.22 15.22 281.91 15.85Q282.60 16.47 283.65 16.47L283.65 16.47Q285.28 16.47 286.20 15.29L286.20 15.29L287.59 16.85Q286.95 17.74 285.87 18.25Q284.79 18.75 283.47 18.75ZM283.14 10.08L283.14 10.08Q282.30 10.08 281.78 10.64Q281.26 11.21 281.11 12.27L281.11 12.27L285.04 12.27L285.04 12.04Q285.02 11.10 284.53 10.59Q284.04 10.08 283.14 10.08ZM302.81 13.82L305.74 13.82Q305.58 16.11 304.05 17.43Q302.52 18.75 300.02 18.75L300.02 18.75Q297.29 18.75 295.72 16.91Q294.15 15.07 294.15 11.86L294.15 11.86L294.15 10.99Q294.15 8.94 294.87 7.37Q295.60 5.81 296.94 4.98Q298.28 4.14 300.06 4.14L300.06 4.14Q302.52 4.14 304.02 5.46Q305.53 6.78 305.76 9.16L305.76 9.16L302.83 9.16Q302.72 7.78 302.07 7.16Q301.41 6.54 300.06 6.54L300.06 6.54Q298.59 6.54 297.87 7.59Q297.14 8.64 297.12 10.85L297.12 10.85L297.12 11.92Q297.12 14.23 297.82 15.29Q298.52 16.36 300.02 16.36L300.02 16.36Q301.38 16.36 302.05 15.74Q302.71 15.12 302.81 13.82L302.81 13.82ZM313.46 7.92L313.42 10.63Q312.84 10.56 312.40 10.56L312.40 10.56Q310.80 10.56 310.30 11.64L310.30 11.64L310.30 18.55L307.48 18.55L307.48 7.99L310.15 7.99L310.22 9.25Q311.07 7.79 312.58 7.79L312.58 7.79Q313.05 7.79 313.46 7.92L313.46 7.92ZM319.45 18.75L319.45 18.75Q317.13 18.75 315.67 17.32Q314.21 15.90 314.21 13.53L314.21 13.53L314.21 13.25Q314.21 11.66 314.82 10.41Q315.44 9.15 316.57 8.47Q317.70 7.79 319.14 7.79L319.14 7.79Q321.31 7.79 322.55 9.16Q323.80 10.53 323.80 13.04L323.80 13.04L323.80 14.19L317.07 14.19Q317.21 15.22 317.90 15.85Q318.58 16.47 319.64 16.47L319.64 16.47Q321.27 16.47 322.19 15.29L322.19 15.29L323.57 16.85Q322.94 17.74 321.86 18.25Q320.77 18.75 319.45 18.75ZM319.13 10.08L319.13 10.08Q318.29 10.08 317.77 10.64Q317.25 11.21 317.10 12.27L317.10 12.27L321.03 12.27L321.03 12.04Q321.01 11.10 320.52 10.59Q320.03 10.08 319.13 10.08ZM334.38 18.55L331.52 18.55Q331.33 18.17 331.24 17.61L331.24 17.61Q330.21 18.75 328.57 18.75L328.57 18.75Q327.02 18.75 326.00 17.85Q324.98 16.95 324.98 15.59L324.98 15.59Q324.98 13.91 326.23 13.01Q327.47 12.11 329.82 12.10L329.82 12.10L331.12 12.10L331.12 11.49Q331.12 10.76 330.75 10.32Q330.37 9.88 329.56 9.88L329.56 9.88Q328.85 9.88 328.44 10.22Q328.04 10.57 328.04 11.16L328.04 11.16L325.21 11.16Q325.21 10.24 325.78 9.46Q326.35 8.68 327.38 8.24Q328.42 7.79 329.71 7.79L329.71 7.79Q331.66 7.79 332.81 8.77Q333.96 9.76 333.96 11.53L333.96 11.53L333.96 16.11Q333.96 17.62 334.38 18.39L334.38 18.39L334.38 18.55ZM329.19 16.59L329.19 16.59Q329.81 16.59 330.34 16.31Q330.87 16.04 331.12 15.57L331.12 15.57L331.12 13.75L330.07 13.75Q327.95 13.75 327.81 15.21L327.81 15.21L327.80 15.38Q327.80 15.91 328.17 16.25Q328.54 16.59 329.19 16.59ZM336.68 5.39L339.50 5.39L339.50 7.99L341.31 7.99L341.31 10.06L339.50 10.06L339.50 15.33Q339.50 15.92 339.73 16.17Q339.95 16.43 340.59 16.43L340.59 16.43Q341.05 16.43 341.42 16.36L341.42 16.36L341.42 18.50Q340.59 18.75 339.71 18.75L339.71 18.75Q336.74 18.75 336.68 15.75L336.68 15.75L336.68 10.06L335.14 10.06L335.14 7.99L336.68 7.99L336.68 5.39ZM342.15 13.30L342.15 13.17Q342.15 11.60 342.75 10.37Q343.36 9.14 344.50 8.47Q345.63 7.79 347.14 7.79L347.14 7.79Q349.28 7.79 350.63 9.10Q351.98 10.41 352.14 12.66L352.14 12.66L352.16 13.38Q352.16 15.81 350.80 17.28Q349.44 18.75 347.16 18.75Q344.87 18.75 343.51 17.29Q342.15 15.82 342.15 13.30L342.15 13.30ZM344.97 13.38L344.97 13.38Q344.97 14.88 345.54 15.68Q346.10 16.47 347.16 16.47L347.16 16.47Q348.18 16.47 348.76 15.69Q349.34 14.90 349.34 13.17L349.34 13.17Q349.34 11.70 348.76 10.89Q348.18 10.08 347.14 10.08L347.14 10.08Q346.10 10.08 345.54 10.88Q344.97 11.69 344.97 13.38ZM359.87 7.92L359.83 10.63Q359.26 10.56 358.82 10.56L358.82 10.56Q357.22 10.56 356.72 11.64L356.72 11.64L356.72 18.55L353.90 18.55L353.90 7.99L356.56 7.99L356.64 9.25Q357.49 7.79 358.99 7.79L358.99 7.79Q359.46 7.79 359.87 7.92L359.87 7.92ZM365.78 14.73L365.78 14.73Q365.78 13.74 366.33 12.90Q366.88 12.06 368.36 11.04L368.36 11.04Q367.72 10.19 367.36 9.44Q367.00 8.69 367.00 7.88L367.00 7.88Q367.00 6.22 368.05 5.18Q369.10 4.14 370.88 4.14L370.88 4.14Q372.47 4.14 373.49 5.09Q374.51 6.04 374.51 7.45L374.51 7.45Q374.51 9.15 372.79 10.45L372.79 10.45L371.70 11.24L374.15 14.09Q374.73 12.96 374.73 11.59L374.73 11.59L377.13 11.59Q377.13 14.37 375.85 16.08L375.85 16.08L377.98 18.55L374.78 18.55L374.04 17.71Q372.47 18.75 370.43 18.75L370.43 18.75Q368.32 18.75 367.05 17.64Q365.78 16.53 365.78 14.73ZM370.57 16.48L370.57 16.48Q371.58 16.48 372.49 15.92L372.49 15.92L369.69 12.68L369.48 12.82Q368.61 13.56 368.61 14.57L368.61 14.57Q368.61 15.42 369.16 15.95Q369.70 16.48 370.57 16.48ZM369.53 7.84L369.53 7.84Q369.53 8.57 370.39 9.69L370.39 9.69L371.14 9.19Q371.72 8.82 371.94 8.47Q372.16 8.12 372.16 7.63Q372.16 7.14 371.80 6.78Q371.44 6.42 370.87 6.42L370.87 6.42Q370.26 6.42 369.90 6.81Q369.53 7.20 369.53 7.84ZM389.99 18.55L384.46 18.55L384.46 4.34L389.44 4.34Q392.03 4.34 393.37 5.33Q394.71 6.32 394.71 8.23L394.71 8.23Q394.71 9.28 394.17 10.07Q393.63 10.87 392.68 11.24L392.68 11.24Q393.77 11.51 394.40 12.34Q395.03 13.17 395.03 14.38L395.03 14.38Q395.03 16.43 393.72 17.48Q392.41 18.54 389.99 18.55L389.99 18.55ZM390.08 12.36L387.39 12.36L387.39 16.20L389.90 16.20Q390.94 16.20 391.52 15.71Q392.10 15.21 392.10 14.35L392.10 14.35Q392.10 12.39 390.08 12.36L390.08 12.36ZM387.39 6.71L387.39 10.29L389.56 10.29Q391.78 10.25 391.78 8.53L391.78 8.53Q391.78 7.56 391.22 7.13Q390.65 6.71 389.44 6.71L389.44 6.71L387.39 6.71ZM396.60 13.30L396.60 13.17Q396.60 11.60 397.21 10.37Q397.81 9.14 398.95 8.47Q400.09 7.79 401.59 7.79L401.59 7.79Q403.73 7.79 405.08 9.10Q406.44 10.41 406.59 12.66L406.59 12.66L406.61 13.38Q406.61 15.81 405.25 17.28Q403.90 18.75 401.61 18.75Q399.33 18.75 397.96 17.29Q396.60 15.82 396.60 13.30L396.60 13.30ZM399.42 13.38L399.42 13.38Q399.42 14.88 399.99 15.68Q400.56 16.47 401.61 16.47L401.61 16.47Q402.64 16.47 403.21 15.69Q403.79 14.90 403.79 13.17L403.79 13.17Q403.79 11.70 403.21 10.89Q402.64 10.08 401.59 10.08L401.59 10.08Q400.56 10.08 399.99 10.88Q399.42 11.69 399.42 13.38ZM407.91 13.30L407.91 13.17Q407.91 11.60 408.52 10.37Q409.12 9.14 410.26 8.47Q411.40 7.79 412.90 7.79L412.90 7.79Q415.04 7.79 416.39 9.10Q417.74 10.41 417.90 12.66L417.90 12.66L417.92 13.38Q417.92 15.81 416.56 17.28Q415.21 18.75 412.92 18.75Q410.63 18.75 409.27 17.29Q407.91 15.82 407.91 13.30L407.91 13.30ZM410.73 13.38L410.73 13.38Q410.73 14.88 411.30 15.68Q411.87 16.47 412.92 16.47L412.92 16.47Q413.95 16.47 414.52 15.69Q415.10 14.90 415.10 13.17L415.10 13.17Q415.10 11.70 414.52 10.89Q413.95 10.08 412.90 10.08L412.90 10.08Q411.87 10.08 411.30 10.88Q410.73 11.69 410.73 13.38ZM420.21 5.39L423.04 5.39L423.04 7.99L424.84 7.99L424.84 10.06L423.04 10.06L423.04 15.33Q423.04 15.92 423.26 16.17Q423.49 16.43 424.12 16.43L424.12 16.43Q424.59 16.43 424.95 16.36L424.95 16.36L424.95 18.50Q424.12 18.75 423.24 18.75L423.24 18.75Q420.27 18.75 420.21 15.75L420.21 15.75L420.21 10.06L418.67 10.06L418.67 7.99L420.21 7.99L420.21 5.39ZM432.14 15.63L432.14 15.63Q432.14 15.12 431.63 14.82Q431.11 14.52 429.98 14.29L429.98 14.29Q426.21 13.50 426.21 11.08L426.21 11.08Q426.21 9.68 427.38 8.74Q428.54 7.79 430.43 7.79L430.43 7.79Q432.44 7.79 433.65 8.74Q434.85 9.69 434.85 11.20L434.85 11.20L432.03 11.20Q432.03 10.60 431.64 10.20Q431.25 9.80 430.42 9.80L430.42 9.80Q429.71 9.80 429.32 10.13Q428.93 10.45 428.93 10.95L428.93 10.95Q428.93 11.42 429.37 11.70Q429.81 11.99 430.87 12.20Q431.92 12.41 432.65 12.68L432.65 12.68Q434.88 13.50 434.88 15.52L434.88 15.52Q434.88 16.96 433.64 17.86Q432.40 18.75 430.44 18.75L430.44 18.75Q429.11 18.75 428.08 18.28Q427.05 17.80 426.46 16.98Q425.88 16.15 425.88 15.20L425.88 15.20L428.55 15.20Q428.59 15.95 429.11 16.35Q429.63 16.75 430.50 16.75L430.50 16.75Q431.31 16.75 431.72 16.44Q432.14 16.13 432.14 15.63ZM438.68 7.99L440.64 14.56L442.60 7.99L445.63 7.99L441.38 20.20L441.14 20.75Q440.20 22.82 438.02 22.82L438.02 22.82Q437.40 22.82 436.77 22.64L436.77 22.64L436.77 20.50L437.20 20.51Q438.00 20.51 438.39 20.26Q438.79 20.02 439.01 19.45L439.01 19.45L439.35 18.58L435.64 7.99L438.68 7.99ZM460.14 13.82L463.07 13.82Q462.90 16.11 461.37 17.43Q459.84 18.75 457.34 18.75L457.34 18.75Q454.61 18.75 453.04 16.91Q451.47 15.07 451.47 11.86L451.47 11.86L451.47 10.99Q451.47 8.94 452.20 7.37Q452.92 5.81 454.26 4.98Q455.61 4.14 457.38 4.14L457.38 4.14Q459.84 4.14 461.35 5.46Q462.85 6.78 463.09 9.16L463.09 9.16L460.16 9.16Q460.05 7.78 459.39 7.16Q458.73 6.54 457.38 6.54L457.38 6.54Q455.92 6.54 455.19 7.59Q454.46 8.64 454.44 10.85L454.44 10.85L454.44 11.92Q454.44 14.23 455.14 15.29Q455.84 16.36 457.34 16.36L457.34 16.36Q458.70 16.36 459.37 15.74Q460.04 15.12 460.14 13.82L460.14 13.82ZM464.37 13.30L464.37 13.17Q464.37 11.60 464.97 10.37Q465.58 9.14 466.71 8.47Q467.85 7.79 469.36 7.79L469.36 7.79Q471.49 7.79 472.85 9.10Q474.20 10.41 474.36 12.66L474.36 12.66L474.38 13.38Q474.38 15.81 473.02 17.28Q471.66 18.75 469.38 18.75Q467.09 18.75 465.73 17.29Q464.37 15.82 464.37 13.30L464.37 13.30ZM467.19 13.38L467.19 13.38Q467.19 14.88 467.75 15.68Q468.32 16.47 469.38 16.47L469.38 16.47Q470.40 16.47 470.98 15.69Q471.55 14.90 471.55 13.17L471.55 13.17Q471.55 11.70 470.98 10.89Q470.40 10.08 469.36 10.08L469.36 10.08Q468.32 10.08 467.75 10.88Q467.19 11.69 467.19 13.38ZM479.09 3.55L479.09 18.55L476.26 18.55L476.26 3.55L479.09 3.55ZM484.39 3.55L484.39 18.55L481.56 18.55L481.56 3.55L484.39 3.55ZM489.70 7.99L489.70 18.55L486.87 18.55L486.87 7.99L489.70 7.99ZM486.70 5.25L486.70 5.25Q486.70 4.62 487.12 4.21Q487.55 3.80 488.28 3.80L488.28 3.80Q489.00 3.80 489.43 4.21Q489.86 4.62 489.86 5.25L489.86 5.25Q489.86 5.90 489.43 6.31Q488.99 6.72 488.28 6.72Q487.57 6.72 487.13 6.31Q486.70 5.90 486.70 5.25ZM491.96 7.99L494.62 7.99L494.71 9.21Q495.84 7.79 497.74 7.79L497.74 7.79Q499.42 7.79 500.24 8.78Q501.06 9.77 501.08 11.73L501.08 11.73L501.08 18.55L498.26 18.55L498.26 11.80Q498.26 10.90 497.87 10.49Q497.48 10.09 496.57 10.09L496.57 10.09Q495.38 10.09 494.79 11.10L494.79 11.10L494.79 18.55L491.96 18.55L491.96 7.99ZM508.95 15.63L508.95 15.63Q508.95 15.12 508.43 14.82Q507.92 14.52 506.79 14.29L506.79 14.29Q503.02 13.50 503.02 11.08L503.02 11.08Q503.02 9.68 504.18 8.74Q505.35 7.79 507.24 7.79L507.24 7.79Q509.25 7.79 510.45 8.74Q511.66 9.69 511.66 11.20L511.66 11.20L508.84 11.20Q508.84 10.60 508.45 10.20Q508.06 9.80 507.23 9.80L507.23 9.80Q506.51 9.80 506.12 10.13Q505.73 10.45 505.73 10.95L505.73 10.95Q505.73 11.42 506.18 11.70Q506.62 11.99 507.68 12.20Q508.73 12.41 509.45 12.68L509.45 12.68Q511.69 13.50 511.69 15.52L511.69 15.52Q511.69 16.96 510.45 17.86Q509.21 18.75 507.25 18.75L507.25 18.75Q505.92 18.75 504.89 18.28Q503.86 17.80 503.27 16.98Q502.69 16.15 502.69 15.20L502.69 15.20L505.36 15.20Q505.40 15.95 505.92 16.35Q506.44 16.75 507.30 16.75L507.30 16.75Q508.12 16.75 508.53 16.44Q508.95 16.13 508.95 15.63ZM518.37 12.56L518.37 13.00Q518.37 15.21 517.73 17.25Q517.10 19.29 515.91 20.85Q514.72 22.41 513.36 23.00L513.36 23.00L512.81 21.50Q514.20 20.46 515 18.28Q515.80 16.10 515.83 13.27L515.83 13.27L515.83 12.75Q515.83 9.83 515.03 7.61Q514.24 5.38 512.81 4.27L512.81 4.27L513.36 2.77Q514.69 3.35 515.86 4.86Q517.04 6.38 517.69 8.39Q518.34 10.40 518.37 12.56L518.37 12.56Z"/></svg>